HIERARCHY
ROOT Hips
{
	OFFSET 0.000000 89.005402 0.000000
	CHANNELS 6 Xposition Yposition Zposition Xrotation Yrotation Zrotation
	JOINT Spine
	{
		OFFSET 0.116900 10.681000 0.373400
		CHANNELS 3 Xrotation Yrotation Zrotation
		JOINT Spine1
		{
			OFFSET 0.000000 13.840401 0.053500
			CHANNELS 3 Xrotation Yrotation Zrotation
			JOINT Spine2
			{
				OFFSET 0.000000 14.712700 -0.366200
				CHANNELS 3 Xrotation Yrotation Zrotation
				JOINT Neck
				{
					OFFSET 0.000000 35.415497 -3.314200
					CHANNELS 3 Xrotation Yrotation Zrotation
					JOINT Head
					{
						OFFSET 0.000000 16.899200 1.218300
						CHANNELS 3 Xrotation Yrotation Zrotation
						JOINT HeadTop_End
						{
							OFFSET 0.000000 22.206207 2.192500
							CHANNELS 3 Xrotation Yrotation Zrotation
							End Site
							{
								OFFSET 0.000000 22.314178 0.000000
							}
						}
					}
				}
				JOINT LeftShoulder
				{
					OFFSET 12.896400 26.716293 -4.548400
					CHANNELS 3 Xrotation Yrotation Zrotation
					JOINT LeftArm
					{
						OFFSET 19.027000 -4.857010 -1.718400
						CHANNELS 3 Xrotation Yrotation Zrotation
						JOINT LeftForeArm
						{
							OFFSET 24.179897 0.000000 0.000000
							CHANNELS 3 Xrotation Yrotation Zrotation
							JOINT LeftHand
							{
								OFFSET 27.156403 0.000000 0.000000
								CHANNELS 3 Xrotation Yrotation Zrotation
								JOINT LeftHandIndex1
								{
									OFFSET 16.441200 0.000000 0.000000
									CHANNELS 3 Xrotation Yrotation Zrotation
									JOINT LeftHandIndex2
									{
										OFFSET 4.821899 0.000000 0.000000
										CHANNELS 3 Xrotation Yrotation Zrotation
										JOINT LeftHandIndex3
										{
											OFFSET 6.386497 0.000000 0.000000
											CHANNELS 3 Xrotation Yrotation Zrotation
											JOINT LeftHandIndex4
											{
												OFFSET 5.188988 0.000000 0.000000
												CHANNELS 3 Xrotation Yrotation Zrotation
												End Site
												{
													OFFSET -0.178703 5.185913 0.000177
												}
											}
										}
									}
								}
								JOINT LeftHandThumb1
								{
									OFFSET 6.534897 -5.032593 5.900300
									CHANNELS 3 Xrotation Yrotation Zrotation
									JOINT LeftHandThumb2
									{
										OFFSET 3.818176 -2.204422 2.204423
										CHANNELS 3 Xrotation Yrotation Zrotation
										JOINT LeftHandThumb3
										{
											OFFSET 3.252098 -1.877594 1.877601
											CHANNELS 3 Xrotation Yrotation Zrotation
											JOINT LeftHandThumb4
											{
												OFFSET 5.251778 -3.032120 3.032117
												CHANNELS 3 Xrotation Yrotation Zrotation
												End Site
												{
													OFFSET 0.000023 6.780014 0.000000
												}
											}
										}
									}
								}
							}
						}
					}
				}
				JOINT RightShoulder
				{
					OFFSET -12.896300 26.716293 -4.548400
					CHANNELS 3 Xrotation Yrotation Zrotation
					JOINT RightArm
					{
						OFFSET -19.027000 -4.857010 -1.718400
						CHANNELS 3 Xrotation Yrotation Zrotation
						JOINT RightForeArm
						{
							OFFSET -24.179897 0.000000 0.000000
							CHANNELS 3 Xrotation Yrotation Zrotation
							JOINT RightHand
							{
								OFFSET -27.156403 0.000000 0.000000
								CHANNELS 3 Xrotation Yrotation Zrotation
								JOINT RightHandThumb1
								{
									OFFSET -6.591202 -4.852203 5.988100
									CHANNELS 3 Xrotation Yrotation Zrotation
									JOINT RightHandThumb2
									{
										OFFSET -3.818176 -2.204422 2.204423
										CHANNELS 3 Xrotation Yrotation Zrotation
										JOINT RightHandThumb3
										{
											OFFSET -3.252098 -1.877594 1.877601
											CHANNELS 3 Xrotation Yrotation Zrotation
											JOINT RightHandThumb4
											{
												OFFSET -5.251778 -3.032120 3.032117
												CHANNELS 3 Xrotation Yrotation Zrotation
												End Site
												{
													OFFSET -0.000023 6.780014 0.000000
												}
											}
										}
									}
								}
								JOINT RightHandIndex1
								{
									OFFSET -16.029404 0.000000 0.000000
									CHANNELS 3 Xrotation Yrotation Zrotation
									JOINT RightHandIndex2
									{
										OFFSET -5.213303 0.000000 0.000000
										CHANNELS 3 Xrotation Yrotation Zrotation
										JOINT RightHandIndex3
										{
											OFFSET -6.386528 0.000000 0.000000
											CHANNELS 3 Xrotation Yrotation Zrotation
											JOINT RightHandIndex4
											{
												OFFSET -5.189026 0.000000 0.000000
												CHANNELS 3 Xrotation Yrotation Zrotation
												End Site
												{
													OFFSET 0.236702 5.183624 0.001972
												}
											}
										}
									}
								}
							}
						}
					}
				}
			}
		}
	}
	JOINT LeftUpLeg
	{
		OFFSET 14.073000 -7.904099 -1.463000
		CHANNELS 3 Xrotation Yrotation Zrotation
		JOINT LeftLeg
		{
			OFFSET -0.109806 -34.073280 4.093200
			CHANNELS 3 Xrotation Yrotation Zrotation
			JOINT LeftFoot
			{
				OFFSET 0.109806 -29.899420 -6.319000
				CHANNELS 3 Xrotation Yrotation Zrotation
				JOINT LeftToeBase
				{
					OFFSET 1.551100 -14.988700 20.535801
					CHANNELS 3 Xrotation Yrotation Zrotation
					JOINT LeftToe_End
					{
						OFFSET 0.221200 0.570800 13.248301
						CHANNELS 3 Xrotation Yrotation Zrotation
						End Site
						{
							OFFSET 0.000000 13.262435 0.000000
						}
					}
				}
			}
		}
	}
	JOINT RightUpLeg
	{
		OFFSET -13.839300 -7.904099 -1.463000
		CHANNELS 3 Xrotation Yrotation Zrotation
		JOINT RightLeg
		{
			OFFSET 0.109694 -34.073219 4.093300
			CHANNELS 3 Xrotation Yrotation Zrotation
			JOINT RightFoot
			{
				OFFSET -0.109694 -29.899384 -6.319200
				CHANNELS 3 Xrotation Yrotation Zrotation
				JOINT RightToeBase
				{
					OFFSET -1.551100 -14.988700 20.535801
					CHANNELS 3 Xrotation Yrotation Zrotation
					JOINT RightToe_End
					{
						OFFSET -0.221200 0.570900 13.248299
						CHANNELS 3 Xrotation Yrotation Zrotation
						End Site
						{
							OFFSET 0.000000 13.262440 0.000000
						}
					}
				}
			}
		}
	}
}
MOTION
Frames: 5
Frame Time: 0.033333
0.041917 79.821701 1.356058 -4.143327 -3.507010 -2.211225 -2.533913 0.446818 0.255041 -0.254743 0.061936 0.312128 -0.254916 0.064137 0.312124 8.222175 0.598528 -0.169831 -5.027651 1.486701 3.589644 0.000000 0.000000 0.000000 1.012124 -24.156053 -7.386144 9.537675 19.485842 -77.227931 0.000015 -23.895197 0.000034 21.592130 1.968771 10.187669 0.279010 1.943896 -16.334293 0.279002 1.943886 -16.334326 0.279009 1.943902 -16.334280 -0.000004 0.000001 0.000002 -6.832367 16.651400 1.661573 4.397191 7.908350 1.089829 -0.579466 1.575006 2.538696 -0.000003 0.000001 -0.000000 0.452197 -5.498408 7.952349 9.568989 26.361445 67.063326 0.000003 17.052643 0.000004 1.791849 2.343218 -4.400514 6.906442 -17.390966 -8.176335 11.165472 -10.992319 2.133381 -1.297755 0.135628 -2.100148 0.000002 0.000000 -0.000001 0.221714 -1.746304 15.053303 0.239311 -1.811970 15.045684 0.239304 -1.811973 15.045703 0.000000 -0.000000 -0.000001 -13.317562 16.488751 32.750149 26.179616 -6.342337 -0.514330 -13.042296 -4.461228 -23.118527 -0.460031 0.000001 -0.000005 -0.000000 0.000001 0.000000 -12.453834 -7.072265 -23.705483 30.555859 -4.953192 1.418379 3.624771 -30.485996 24.548412 -2.540350 -0.000023 0.000001 -0.000000 -0.000001 0.000000 
0.041531 79.818970 1.367710 -4.149634 -3.505897 -2.211845 -2.519646 0.443700 0.260833 -0.254888 0.061549 0.306853 -0.255074 0.063706 0.306854 8.232991 0.594037 -0.168701 -5.005108 1.454664 3.611752 0.000000 0.000000 -0.000000 1.012452 -24.170872 -7.386358 9.538736 19.480681 -77.226367 -0.000004 -23.885115 -0.000009 21.617605 1.949628 10.226111 0.279011 1.943892 -16.334293 0.279003 1.943888 -16.334297 0.279009 1.943890 -16.334295 -0.000005 0.000000 -0.000000 -6.830547 16.650698 1.665064 4.406324 7.907555 1.096653 -0.579466 1.575031 2.538735 0.000002 -0.000000 0.000002 0.455825 -5.496824 7.989778 9.561065 26.361583 67.052671 -0.000001 17.035573 0.000016 1.788497 2.350491 -4.356364 6.908301 -17.393487 -8.173763 11.166113 -10.994766 2.130292 -1.298293 0.135563 -2.100274 -0.000003 -0.000001 -0.000000 0.221480 -1.745417 15.057354 0.239422 -1.812434 15.049618 0.239435 -1.812433 15.049608 0.000001 -0.000000 0.000001 -13.290813 16.473605 32.737086 26.182028 -6.358762 -0.500171 -13.060480 -4.432330 -23.125906 -0.482705 -0.000011 -0.000006 -0.000000 -0.000001 -0.000000 -12.440463 -7.191899 -23.857745 30.509331 -4.951645 1.600918 3.509053 -30.232408 24.423694 -2.546996 -0.000013 -0.000004 -0.000000 -0.000001 -0.000000 
0.043245 79.817963 1.379378 -4.157693 -3.509285 -2.209090 -2.500817 0.447479 0.255526 -0.257202 0.062033 0.308027 -0.257386 0.064155 0.308015 8.241924 0.589780 -0.171553 -4.967128 1.418957 3.640011 0.000000 0.000000 -0.000000 1.012247 -24.183750 -7.389222 9.533485 19.471034 -77.226900 0.000009 -23.873290 0.000016 21.611542 1.936046 10.230495 0.279002 1.943891 -16.334303 0.278996 1.943877 -16.334292 0.279010 1.943893 -16.334273 -0.000002 0.000002 0.000004 -6.828710 16.649983 1.668526 4.415398 7.906791 1.103473 -0.579455 1.575077 2.538703 -0.000000 0.000001 0.000003 0.456802 -5.512886 7.996978 9.525039 26.381942 67.071187 -0.000001 16.987053 -0.000013 1.818397 2.337012 -4.330248 6.910113 -17.396010 -8.171307 11.166768 -10.997228 2.127206 -1.298807 0.135489 -2.100387 -0.000001 -0.000001 -0.000003 0.221199 -1.744398 15.061452 0.239544 -1.812896 15.053544 0.239543 -1.812899 15.053542 -0.000001 0.000001 0.000001 -13.280890 16.500639 32.750231 26.174485 -6.357892 -0.511972 -13.074198 -4.475150 -23.125892 -0.473424 -0.000003 0.000010 0.000000 0.000000 0.000000 -12.422728 -7.194498 -23.865752 30.506825 -4.918830 1.609440 3.503073 -30.267857 24.429203 -2.543439 0.000005 -0.000006 -0.000000 -0.000001 0.000000 
0.046325 79.817871 1.390707 -4.163531 -3.518305 -2.206293 -2.480939 0.457434 0.246306 -0.260983 0.063330 0.313613 -0.261171 0.065429 0.313577 8.249258 0.584956 -0.176286 -4.922013 1.372926 3.681864 0.000000 0.000000 -0.000000 1.012416 -24.201338 -7.390405 9.530840 19.461359 -77.232398 -0.000006 -23.871055 -0.000018 21.561111 1.936967 10.190833 0.278998 1.943871 -16.334341 0.278998 1.943899 -16.334293 0.279009 1.943883 -16.334307 -0.000000 -0.000001 -0.000002 -6.826838 16.649291 1.671992 4.424451 7.905991 1.110253 -0.579457 1.575145 2.538731 0.000001 0.000002 0.000005 0.455121 -5.531108 7.976496 9.471381 26.409638 67.103453 -0.000003 16.910068 0.000017 1.865734 2.311558 -4.334103 6.911922 -17.398519 -8.168919 11.167381 -10.999682 2.124127 -1.299310 0.135404 -2.100499 -0.000001 -0.000001 -0.000000 0.220882 -1.743232 15.065550 0.239671 -1.813353 15.057453 0.239678 -1.813365 15.057444 0.000001 -0.000000 0.000001 -13.245707 16.494664 32.729467 26.178843 -6.341636 -0.502459 -13.086046 -4.439367 -23.131452 -0.466128 0.000003 -0.000003 -0.000000 0.000001 0.000000 -12.447182 -7.210352 -23.872187 30.549452 -4.921941 1.618313 3.515389 -30.329554 24.409375 -2.530056 -0.000011 0.000006 0.000000 -0.000000 -0.000000 
0.046684 79.815201 1.401042 -4.164311 -3.529832 -2.203063 -2.464786 0.469889 0.235337 -0.264073 0.064946 0.319911 -0.264261 0.067031 0.319863 8.260471 0.570375 -0.183605 -4.869697 1.254596 3.762900 -0.000000 0.000000 -0.000000 1.012885 -24.225192 -7.390450 9.533359 19.456885 -77.238204 0.000007 -23.881767 0.000011 21.478049 1.953297 10.118087 0.279014 1.943889 -16.334295 0.279002 1.943881 -16.334297 0.279002 1.943890 -16.334317 -0.000002 0.000000 0.000003 -6.824941 16.648560 1.675419 4.433464 7.905225 1.117036 -0.579439 1.575226 2.538724 -0.000001 -0.000001 -0.000004 0.453021 -5.525341 7.952067 9.414212 26.425787 67.127386 -0.000004 16.804116 0.000029 1.888491 2.301651 -4.347504 6.913692 -17.401029 -8.166654 11.168047 -11.002146 2.121079 -1.299811 0.135296 -2.100620 0.000003 0.000002 0.000003 0.220524 -1.741915 15.069653 0.239799 -1.813824 15.061358 0.239818 -1.813821 15.061351 -0.000001 0.000000 0.000001 -13.227903 16.501073 32.725400 26.180521 -6.346666 -0.503921 -13.100727 -4.424903 -23.132049 -0.482747 -0.000004 0.000001 0.000000 0.000000 -0.000000 -12.419556 -7.205883 -23.884219 30.516445 -4.940897 1.604147 3.497486 -30.232425 24.440679 -2.510378 -0.000032 -0.000004 0.000000 0.000000 0.000000 
